<svg xmlns="http://www.w3.org/2000/svg" viewBox="0 0 500 500"><g id="freepik--background-complete--inject-8"><rect x="389.92" y="240.98" width="38.37" height="56.93" transform="translate(8.64 551.58) rotate(-68.53)" style="fill:#ebebeb"></rect><path d="M442.62,262.5a3,3,0,0,1-.68.28l-2,.72L432.62,266l-24.3,8.19-.2.07-.11-.19-.25-.44-12.91-22.57L391,244.22l-1-1.88a3.14,3.14,0,0,1-.32-.67,3.77,3.77,0,0,1,.41.62l1.12,1.83,4,6.79,13,22.49.26.44-.31-.11,24.36-8.05,7.38-2.37,2-.62A4.84,4.84,0,0,1,442.62,262.5Z" style="fill:#e0e0e0"></path><path d="M375.59,277.38c-.06-.12,5.85-3.45,13.2-7.43s13.38-7.11,13.45-7-5.84,3.45-13.2,7.43S375.66,277.51,375.59,277.38Z" style="fill:#e0e0e0"></path><path d="M420,269.45c.14,0,2.17,6.36,4.53,14.31s4.16,14.41,4,14.45-2.17-6.36-4.53-14.31S419.89,269.49,420,269.45Z" style="fill:#e0e0e0"></path><rect x="169.17" y="402.15" width="56.93" height="38.37" transform="translate(-167.37 132.63) rotate(-26.53)" style="fill:#ebebeb"></rect><path d="M214.91,391.79a5.33,5.33,0,0,1-.25.69l-.8,1.95c-.73,1.74-1.76,4.17-3,7.14l-10.18,23.55-.09.19-.21,0-.5-.11-25.4-5.51-7.69-1.73-2.08-.5a5.53,5.53,0,0,1-.72-.2,3.16,3.16,0,0,1,.74.1l2.1.4,7.72,1.57L200,424.65l.5.11-.29.15c4-9.16,7.67-17.44,10.32-23.48,1.33-2.95,2.41-5.36,3.18-7.08.37-.79.66-1.43.88-1.91A3.37,3.37,0,0,1,214.91,391.79Z" style="fill:#e0e0e0"></path><path d="M181.11,451.55c-.14,0,1.34-6.65,3.3-14.78s3.68-14.7,3.81-14.66-1.34,6.65-3.3,14.78S181.24,451.58,181.11,451.55Z" style="fill:#e0e0e0"></path><path d="M204.94,413.23c.06-.13,6.18,2.65,13.66,6.21S232.11,426,232,426.12s-6.17-2.65-13.66-6.21S204.88,413.35,204.94,413.23Z" style="fill:#e0e0e0"></path><path d="M130.87,262.58c19.36-12.92,24.08-37.36,23.67-59.4-.07-3.68.4-7.55-1.32-10.81s-5.83-5.52-9.19-4c-2.79,1.25-4,4.41-5.63,7a21.68,21.68,0,0,1-8.87,8.11c-2.39,1.18-5.34,1.88-7.66.57-3.19-1.8-3.5-6.19-3.42-9.85l.45-20.45c.08-3.65.15-7.39-1-10.88s-3.59-6.75-7.1-7.77-7.91.91-8.71,4.48c-.33,1.48,0,3-.17,4.55s-.87,3.19-2.34,3.59-2.95-.65-4-1.74c-3.77-3.75-6.29-8.55-8.64-13.31s-4.64-9.65-8-13.73-8.16-7.34-13.47-7.72-11,2.77-12.43,7.9,1.55,10.41,4.8,14.63a82,82,0,0,0,17,16.46c1.16.84,2.41,1.74,2.83,3.1.77,2.45-1.61,4.84-4.06,5.61-2.78.86-5.77.54-8.66.83s-6,1.5-7.19,4.18c-1.57,3.72,1.54,7.68,4.61,10.3A71.41,71.41,0,0,0,83.1,206.48c2.71,1,5.57,1.93,7.74,3.85s3.44,5.23,2.07,7.79-4.79,3.33-7.64,2.77-5.38-2.14-8.08-3.19c-5.06-2-11.65-1.73-15,2.57-2.18,2.82-2.44,6.8-1.4,10.22a26.62,26.62,0,0,0,5.47,9.12,71.29,71.29,0,0,0,30.1,21.56c11.75,4.22,22.68,5.48,34.49,1.41" style="fill:#ebebeb"></path><path d="M125.27,248.7a326.53,326.53,0,0,0-12.64-35.47q-1.92-4.64-3.79-9.14c-1.26-3-2.5-6-3.89-8.79a164,164,0,0,0-9-15.81c-3.09-4.89-6.22-9.42-9.16-13.64s-5.8-8.08-8.53-11.51a131,131,0,0,0-14.1-15.19c-1.8-1.66-3.24-2.91-4.22-3.74l-1.13-.94-.39-.3s.11.12.36.35l1.09,1c1,.86,2.37,2.12,4.15,3.8A138.32,138.32,0,0,1,78,154.58c2.71,3.43,5.52,7.32,8.46,11.53s6,8.77,9.11,13.66a164.24,164.24,0,0,1,8.91,15.77c1.39,2.82,2.62,5.76,3.87,8.77s2.51,6,3.79,9.13a331.81,331.81,0,0,1,12.66,35.4" style="fill:#e0e0e0"></path><path d="M104.81,195.25a9.28,9.28,0,0,0,.36-1.56c.2-1,.45-2.48.73-4.3.57-3.63,1.2-8.68,1.87-14.24s1.38-10.6,2-14.21c.32-1.81.6-3.27.8-4.28a10,10,0,0,0,.26-1.57,8.55,8.55,0,0,0-.47,1.53c-.27,1-.6,2.44-1,4.25-.75,3.6-1.52,8.64-2.19,14.21s-1.25,10.51-1.7,14.26c-.23,1.74-.42,3.19-.56,4.31A8.89,8.89,0,0,0,104.81,195.25Z" style="fill:#e0e0e0"></path><path d="M57.3,185.75a2.87,2.87,0,0,0,.49.08l1.41.14c1.22.12,3,.29,5.17.56,4.35.52,10.35,1.46,16.92,2.78s12.45,2.8,16.68,4c2.12.58,3.82,1.09,5,1.44l1.36.4a2.07,2.07,0,0,0,.49.11,1.77,1.77,0,0,0-.45-.21l-1.33-.5c-1.16-.42-2.84-1-5-1.62-4.21-1.29-10.1-2.81-16.68-4.15s-12.61-2.2-17-2.62c-2.19-.23-4-.34-5.2-.39l-1.42,0A1.56,1.56,0,0,0,57.3,185.75Z" style="fill:#e0e0e0"></path><path d="M124.75,247.81a2.56,2.56,0,0,0,.32-.57c.22-.44.5-1,.84-1.7.71-1.47,1.7-3.63,2.88-6.31,2.37-5.35,5.42-12.85,8.68-21.17s6.25-15.83,8.52-21.22l2.73-6.37.73-1.74a3.37,3.37,0,0,0,.23-.62,2.8,2.8,0,0,0-.33.57l-.83,1.7c-.72,1.47-1.7,3.63-2.88,6.31-2.38,5.35-5.42,12.85-8.68,21.17s-6.25,15.83-8.53,21.22l-2.72,6.37-.74,1.74A2.82,2.82,0,0,0,124.75,247.81Z" style="fill:#e0e0e0"></path><path d="M61.75,226.73a4,4,0,0,0,.63.25l1.83.62L71,229.85c5.7,1.91,13.54,4.64,22.2,7.68s16.52,5.71,22.26,7.53c2.86.9,5.19,1.62,6.81,2.08l1.86.52a2.79,2.79,0,0,0,.66.15,3.07,3.07,0,0,0-.63-.25l-1.83-.63-6.75-2.25c-5.7-1.9-13.54-4.63-22.2-7.67s-16.52-5.71-22.25-7.53c-2.87-.91-5.2-1.62-6.82-2.08l-1.86-.53A3,3,0,0,0,61.75,226.73Z" style="fill:#e0e0e0"></path><rect x="68.36" y="44.6" width="70.5" height="41.95" rx="7.04" style="fill:#e0e0e0"></rect><polyline points="111.24 85.22 127.91 100.02 129.28 85.48" style="fill:#e0e0e0"></polyline><path d="M94.44,66.18a4.11,4.11,0,1,1-4.11-4.11A4.11,4.11,0,0,1,94.44,66.18Z" style="fill:#fff"></path><path d="M108.56,66.18a4.11,4.11,0,1,1-4.1-4.11A4.1,4.1,0,0,1,108.56,66.18Z" style="fill:#fff"></path><path d="M122.69,66.18a4.11,4.11,0,1,1-4.1-4.11A4.11,4.11,0,0,1,122.69,66.18Z" style="fill:#fff"></path><rect x="336.28" y="89.38" width="38.37" height="56.93" transform="translate(115.72 405.54) rotate(-68.53)" style="fill:#ebebeb"></rect><path d="M389,110.9a3.28,3.28,0,0,1-.68.29l-2,.71L379,114.43l-24.31,8.19-.2.07-.11-.19-.25-.44L341.21,99.49c-1.6-2.86-2.92-5.19-3.86-6.87l-1-1.88a3.67,3.67,0,0,1-.33-.67,3.9,3.9,0,0,1,.42.62l1.11,1.83c1,1.66,2.33,4,4,6.79l13,22.49.25.45-.3-.12,24.35-8,7.39-2.38,2-.62A5.25,5.25,0,0,1,389,110.9Z" style="fill:#e0e0e0"></path><path d="M322,125.78c-.07-.12,5.84-3.45,13.19-7.43s13.38-7.11,13.45-7-5.84,3.45-13.2,7.43S322,125.91,322,125.78Z" style="fill:#e0e0e0"></path><path d="M366.39,117.85c.13,0,2.16,6.37,4.52,14.31s4.17,14.42,4,14.46-2.16-6.37-4.52-14.31S366.25,117.89,366.39,117.85Z" style="fill:#e0e0e0"></path></g><g id="freepik--Floor--inject-8"><path d="M468.1,466.42c0,.14-97.65.26-218.09.26s-218.11-.12-218.11-.26,97.63-.26,218.11-.26S468.1,466.27,468.1,466.42Z" style="fill:#263238"></path></g><g id="freepik--speech-bubbles--inject-8"><circle cx="257.9" cy="246.02" r="12.9" style="fill:#2563EB"></circle><circle cx="302.3" cy="246.02" r="12.9" style="fill:#2563EB"></circle><path d="M388.16,179.27a2.73,2.73,0,0,1,.76-.05,10.48,10.48,0,0,1,2.23.25,12.17,12.17,0,0,1,3.47,1.3,12.82,12.82,0,0,1,3.88,3.35,12.68,12.68,0,0,1,2.55,6,14,14,0,0,1,.16,1.85c0,.62,0,1.24,0,1.88,0,1.28,0,2.62,0,4,.05,5.55.09,11.93.15,19.08.07,14.31.15,31.71.25,51.74q0,7.51.06,15.5,0,4,0,8.11c0,1.37,0,2.75,0,4.14,0,.69,0,1.39,0,2.09a15.68,15.68,0,0,1-.2,2.26,13.65,13.65,0,0,1-13,11.4l-18.22.06,1.08-1c-1.18,12.81-2.42,26.34-3.72,40.38l-.2,2.19-1.7-1.4-48.91-40.3.8.28-100.22.05H193.85c-.8,0-1.53,0-2.38,0a13.79,13.79,0,0,1-10.94-5.82,14.09,14.09,0,0,1-2.15-4.61,18.27,18.27,0,0,1-.45-4.9q0-4.6,0-9.18,0-9.13,0-18.13c0-24,.05-47.1.07-69.13,0-2.75,0-5.49,0-8.2a14.48,14.48,0,0,1,.55-4.35,14.16,14.16,0,0,1,1.87-4,13.82,13.82,0,0,1,6.83-5.21,13.29,13.29,0,0,1,4.23-.77c1.36,0,2.63,0,3.95,0l30.36.06,54.49.16,78.91.41,21.45.25,5.58.13a10.64,10.64,0,0,1,1.9.13,9.54,9.54,0,0,1-1.9.13l-5.58.13-21.45.25-78.91.41-54.49.16-30.36.06c-1.29,0-2.64,0-3.9,0a10.9,10.9,0,0,0-3.52.65,11.49,11.49,0,0,0-5.65,4.34,11.75,11.75,0,0,0-2,7c0,2.71,0,5.45,0,8.2,0,22,.05,45.15.08,69.13q0,9,0,18.13v9.18a15.31,15.31,0,0,0,.38,4.26,11.3,11.3,0,0,0,8.57,8.23,12.06,12.06,0,0,0,2.08.25c.71,0,1.54,0,2.31,0H217.5l100.22.05h.45l.35.29,48.8,40.43-1.91.79c1.35-14,2.65-27.56,3.89-40.36l.09-1h1l18.16,0a11.61,11.61,0,0,0,11.1-9.65,13.71,13.71,0,0,0,.17-1.93c0-.7,0-1.4,0-2.09,0-1.39,0-2.77,0-4.14q0-4.11,0-8.11,0-8,.06-15.5c.1-20,.18-37.43.25-51.74.06-7.15.1-13.53.15-19.08,0-1.38,0-2.72,0-4,0-.64,0-1.26,0-1.88a14.13,14.13,0,0,0-.11-1.74,12.12,12.12,0,0,0-2.27-5.69,12.4,12.4,0,0,0-3.61-3.31,12.56,12.56,0,0,0-3.3-1.41C389.19,179.31,388.16,179.37,388.16,179.27Z" style="fill:#2563EB"></path><path d="M110.65,243.47H305.43a13.4,13.4,0,0,1,13.4,13.4V361.93a13.4,13.4,0,0,1-13.4,13.4H110.65a13.39,13.39,0,0,1-13.39-13.39V256.87A13.39,13.39,0,0,1,110.65,243.47Z" style="fill:#2563EB"></path><polyline points="232.04 371.11 284.43 417.63 288.73 371.94" style="fill:#2563EB"></polyline><circle cx="166.32" cy="311.26" r="12.9" style="fill:#fff"></circle><circle cx="210.72" cy="311.26" r="12.9" style="fill:#fff"></circle><circle cx="255.12" cy="311.26" r="12.9" style="fill:#fff"></circle><g style="opacity:0.30000000000000004"><path d="M310.56,244l-20.82-.61-161,0c13.38,13.31,32.51,20.43,51.3,22.07s37.68-1.22,56.27-4.44,37.26-6.82,56.13-6.68c4,0,8.11.2,11.81-1.28S311.11,248,310.56,244Z"></path></g><circle cx="346.7" cy="246.02" r="12.9" style="fill:#2563EB"></circle></g><g id="freepik--Character--inject-8"><path d="M235.53,56.34a24.62,24.62,0,0,0-23.15,17.35c-1.46,5.13-1.17,10.59-2.11,15.85s-3.59,10.76-8.58,12.66c-3.25,1.23-7,.72-10.2,2a9.69,9.69,0,0,0-3.09,16,11.28,11.28,0,0,0,10.89,19.26c-1.85,3-1.24,7,.93,9.74a13.45,13.45,0,0,0,9.08,4.58,31.71,31.71,0,0,0,10.34-.93c7.58-1.68,15.18-4.38,20.88-9.65,6.25-5.78,9.56-14,12.07-22.17,4.78-15.55,7.33-32.3,3.42-48.09" style="fill:#263238"></path><path d="M200.68,143l-8.43,18.43L173.8,120.77c-.87-3.29-1.85-7-2.05-7.74a10.54,10.54,0,0,1-.31-3.49,15.79,15.79,0,0,1,.78-4.28c.55-1.23-.68-2.48-1.74-1.88s-2.65,4-2.6,8.27-14.82-5.93-17.23-3.51l1.8,14.3c1.63,1.49,6.23,5.6,8.79,7.87l17.4,43.3a14.86,14.86,0,0,0,26.89,2.21l11.21-19.76Z" style="fill:#ffbe9d"></path><path d="M161.59,95a.55.55,0,0,1,.72.39l9.57,28.41a1.17,1.17,0,0,1-.46,1.38l-11.36,6.37a.87.87,0,0,1-1.24-.54L148.06,101.6a1.13,1.13,0,0,1,.55-1.44Z" style="fill:#263238"></path><polygon points="161.9 97.09 170.7 122.43 159.45 128.43 149.78 101.9 161.9 97.09" style="fill:#f5f5f5"></polygon><path d="M151.93,103.62c.34.87.9,2.27,1.25,3.14a.82.82,0,0,0,1.09.45l6-2.51,2.07.3-.58-1.09.68-.28a.82.82,0,0,0,.45-1.09l-1.22-2.85a.82.82,0,0,0-1.07-.43l-8.18,3.3A.81.81,0,0,0,151.93,103.62Z" style="fill:#e0e0e0"></path><path d="M157,118.6l1.25,3.13a.82.82,0,0,0,1.08.45l6-2.51,2.07.3-.58-1.09.68-.28a.82.82,0,0,0,.45-1.09l-1.22-2.84a.81.81,0,0,0-1.06-.44l-8.19,3.3A.82.82,0,0,0,157,118.6Z" style="fill:#e0e0e0"></path><path d="M164,107.16c.38.85,1,2.24,1.36,3.09a.82.82,0,0,1-.44,1.09l-6,2.5-1.23,1.69-.38-1.19-.67.3a.83.83,0,0,1-1.09-.44l-1.18-2.87a.83.83,0,0,1,.44-1.07l8.09-3.52A.82.82,0,0,1,164,107.16Z" style="fill:#e0e0e0"></path><path d="M150.65,108.85c1.93.32,4.3.51,6.23.83a3.57,3.57,0,0,1,1.57.52,1.21,1.21,0,0,1,.44,1.46c-.31.56-1.07.6-1.71.58-1.42,0-3,.26-4.42.21,1.82.16,3.5.31,5.53.55a1.91,1.91,0,0,1,1.71,1.66,1.55,1.55,0,0,1-1.41,1.41,16.24,16.24,0,0,1-2.24,0s-2.93,0-3.06.42c1.83,0,4.24.38,6.07.55.5,0,.72.72.84,1.21a1.1,1.1,0,0,1-.52,1.28,1.76,1.76,0,0,1-.72.08c-2.37-.07-3.6.08-6,0" style="fill:#ffbe9d"></path><path d="M194.54,174.59a29.79,29.79,0,0,0-.24-6.85,29.5,29.5,0,0,0-2.31-6.46,6,6,0,0,1,1.17,1.69,16.4,16.4,0,0,1,1.65,4.67,16.14,16.14,0,0,1,.19,5A5.68,5.68,0,0,1,194.54,174.59Z" style="fill:#eb996e"></path><path d="M159.8,117.34a16.42,16.42,0,0,1-4.13-.22c-1.13-.11-2.17-.34-2.86-.34a2.67,2.67,0,0,0-1.09.31s0-.14.18-.3a1.5,1.5,0,0,1,.88-.37,16.18,16.18,0,0,1,2.95.18A17,17,0,0,1,159.8,117.34Z" style="fill:#eb996e"></path><path d="M159.15,113.19a16.36,16.36,0,0,1-4.09-.21c-1.12-.11-2.15-.35-2.82-.33s-1,.41-1.06.35.19-.57,1-.71a5,5,0,0,1,1.34,0l1.58.17A16.52,16.52,0,0,1,159.15,113.19Z" style="fill:#eb996e"></path><path d="M216.21,198.86s-60.86-4.6-78.47,9.18-9.18,36-9.18,36h99.52l3.82-45.9Z" style="fill:#263238"></path><path d="M227.66,230.47a4.94,4.94,0,0,1-.89-.06c-.58-.07-1.44-.15-2.53-.3-2.2-.28-5.38-.73-9.29-1.39a268.32,268.32,0,0,1-30.16-7C179,220,173.5,218.29,168.43,217a72.51,72.51,0,0,0-13.68-2.17,41.24,41.24,0,0,0-9.31.54c-1.1.14-1.92.41-2.49.51a6.59,6.59,0,0,1-.88.17,5.63,5.63,0,0,1,.85-.27,24.21,24.21,0,0,1,2.48-.61,38.87,38.87,0,0,1,9.37-.71,70.19,70.19,0,0,1,13.77,2.08c5.1,1.23,10.61,3,16.4,4.67A297.28,297.28,0,0,0,215,228.36c3.89.7,7.06,1.21,9.24,1.55l2.52.39C227.36,230.4,227.66,230.46,227.66,230.47Z" style="fill:#455a64"></path><path d="M170.22,216.76a38.11,38.11,0,0,0-5.47-3.82,37,37,0,0,0-6.26-2.32,5.77,5.77,0,0,1,2,.21,18,18,0,0,1,4.52,1.64,18.28,18.28,0,0,1,3.92,2.78A5.91,5.91,0,0,1,170.22,216.76Z" style="fill:#455a64"></path><path d="M260.26,193.13s-55.67,1.51-73.28,15.29-9.18,36-9.18,36L282.2,246V232.55l-13.54-1.46-.1-.62c5.25-5.75,1.25-25.79-7.49-36.36Z" style="fill:#263238"></path><path d="M275.89,232a5.89,5.89,0,0,1-.89-.07c-.58-.06-1.43-.15-2.53-.29-2.2-.28-5.38-.73-9.28-1.4a265.4,265.4,0,0,1-30.17-7c-5.8-1.72-11.28-3.46-16.36-4.71A72.6,72.6,0,0,0,203,216.33a41.24,41.24,0,0,0-9.31.54c-1.1.14-1.92.42-2.49.52a5.45,5.45,0,0,1-.88.16,5.12,5.12,0,0,1,.85-.26,24.4,24.4,0,0,1,2.48-.62A39,39,0,0,1,203,216,70,70,0,0,1,216.77,218c5.11,1.24,10.61,3,16.4,4.68a294.18,294.18,0,0,0,30.08,7.11c3.89.71,7.06,1.22,9.25,1.56l2.52.39A5,5,0,0,1,275.89,232Z" style="fill:#455a64"></path><path d="M218.45,218.24a38.61,38.61,0,0,0-5.47-3.83,39.25,39.25,0,0,0-6.26-2.32,5.66,5.66,0,0,1,2,.22,18,18,0,0,1,8.45,4.42A6,6,0,0,1,218.45,218.24Z" style="fill:#455a64"></path><path d="M231.48,195.44a5.26,5.26,0,0,1-.86.15l-2.48.35c-2.14.32-5.24.84-9,1.6s-8.32,1.75-13.31,2.94a54.16,54.16,0,0,0-15.37,6.14,32.15,32.15,0,0,0-6.69,5.33,29.5,29.5,0,0,0-4.63,6.48,28.51,28.51,0,0,0-3.25,13,29.54,29.54,0,0,0,1.32,9c.32,1,.62,1.82.83,2.35a7.86,7.86,0,0,1,.3.82,4.24,4.24,0,0,1-.4-.78,24,24,0,0,1-.92-2.33,28.66,28.66,0,0,1,1.7-22.31,29.52,29.52,0,0,1,4.67-6.61,32.24,32.24,0,0,1,6.8-5.42A53.53,53.53,0,0,1,205.67,200c5-1.17,9.53-2.11,13.35-2.83s6.94-1.18,9.09-1.44c1.08-.13,1.92-.22,2.5-.26A8.07,8.07,0,0,1,231.48,195.44Z" style="fill:#455a64"></path><path d="M282.2,233.22l9.52-.6,6.31,3.67,12.09,1.32c5.79.3,6.71,6.53,3.15,6.53-2.83,0-19.76,1.1-19.76,1.1l-11.31.3Z" style="fill:#e0e0e0"></path><path d="M297.67,236.31a2.93,2.93,0,0,1-1.46.68,6.46,6.46,0,0,1-6.95-2.69,2.84,2.84,0,0,1-.62-1.48c.07,0,.32.52.92,1.27a6.92,6.92,0,0,0,6.57,2.54C297.08,236.48,297.64,236.23,297.67,236.31Z" style="fill:#455a64"></path><path d="M312.78,244c0,.06-.48.18-1.16-.17a3.52,3.52,0,0,1-1.6-2.34,3.76,3.76,0,0,1,.25-2.81c.38-.66.84-.85.87-.79s-.29.34-.54,1a3.93,3.93,0,0,0-.07,2.53,3.55,3.55,0,0,0,1.28,2.14C312.34,243.92,312.79,243.94,312.78,244Z" style="fill:#455a64"></path><path d="M219,117.37s-11.87,26.09-11.17,30.52S212,170,212,170l2.51,28.76s44.83-5.43,45.76-5.43-1.4-23.79-1.4-23.79l6.83-45.72s-3.13-6.23-17.25-8.39C240,114.12,219,117.37,219,117.37Z" style="fill:#2563EB"></path><path d="M251.77,152.53A37.69,37.69,0,0,0,256,165.81c.86,1.55,1.66,3.73,3.08,4.79,2.22,1.67,5.41.1,7.42-1.81s4.05-4.33,6.82-4.43c1.77-.06,3.41.86,5.14,1.23s4-.2,4.37-1.92a4.47,4.47,0,0,0-.68-2.9,121.81,121.81,0,0,1-9.68-26.5,41.87,41.87,0,0,0-3.52-7.49c-1-1.69-3.58-4.14-6.12-6.2" style="fill:#2563EB"></path><path d="M227.46,115.64c-12.34.43-21.59,8.59-24.22,14.47-3.09,6.9-5.49,15.24-9.11,21.88a15.37,15.37,0,0,0-1.87,4,3.67,3.67,0,0,0,1.36,3.94c1.86,1.1,4.56-.33,6.27,1,.94.72,1.22,2,2,2.9,1,1.07,2.57,1.29,4,1.45l8.33.9" style="fill:#2563EB"></path><path d="M249,141.1a4.36,4.36,0,0,1-.48-1,13.11,13.11,0,0,1-.74-2.91,14.6,14.6,0,0,1,9.47-15.85,13.27,13.27,0,0,1,2.91-.72,3.56,3.56,0,0,1,1.1,0,26.72,26.72,0,0,0-3.88,1.12,14.72,14.72,0,0,0-9.23,15.45A28.44,28.44,0,0,0,249,141.1Z" style="fill:#263238"></path><path d="M215.11,130.88a7.91,7.91,0,0,1-.64,1.3c-.23.41-.5.91-.77,1.51s-.63,1.26-.94,2a44.38,44.38,0,0,0-1.95,5.49,46.65,46.65,0,0,0-1.37,7,48.34,48.34,0,0,0-.22,7.12,44.62,44.62,0,0,0,.67,5.78c.13.82.32,1.54.46,2.19s.29,1.19.42,1.64a9,9,0,0,1,.33,1.41,7.33,7.33,0,0,1-.53-1.35,16.41,16.41,0,0,1-.5-1.63c-.17-.64-.39-1.37-.54-2.19a40.4,40.4,0,0,1-.79-5.83,41.25,41.25,0,0,1,1.61-14.26,39.53,39.53,0,0,1,2.08-5.5,22,22,0,0,1,1-2,15.74,15.74,0,0,1,.85-1.48A7.86,7.86,0,0,1,215.11,130.88Z" style="fill:#263238"></path><path d="M282.1,160.14s0,.11-.1.29a2.23,2.23,0,0,1-.57.68,4.26,4.26,0,0,1-3.14.71c-1.4-.16-2.85-1-4.54-1.3a6.31,6.31,0,0,0-5.12,1.66c-1.57,1.26-2.85,2.79-4.36,3.82a6.69,6.69,0,0,1-2.34,1.11,8.38,8.38,0,0,1-2.25.14,6.52,6.52,0,0,1-3.08-.93,2.79,2.79,0,0,1-.65-.61q-.16-.26-.15-.27a6.85,6.85,0,0,0,.91.7,6.73,6.73,0,0,0,3,.74,8.39,8.39,0,0,0,2.13-.19,6.48,6.48,0,0,0,2.17-1.08c1.42-1,2.67-2.53,4.31-3.84a9.3,9.3,0,0,1,2.66-1.52,5.45,5.45,0,0,1,2.87-.2c1.8.39,3.21,1.22,4.5,1.4a4.21,4.21,0,0,0,3-.5A3.85,3.85,0,0,0,282.1,160.14Z" style="fill:#fafafa"></path><path d="M279.24,154.29a.62.62,0,0,1-.07.28,1.87,1.87,0,0,1-.49.66,3.45,3.45,0,0,1-2.92.61c-1.28-.21-2.6-1.05-4.18-1.13a8.4,8.4,0,0,0-4.86,1.64c-1.56,1.05-2.9,2.29-4.29,3.23a9.41,9.41,0,0,1-4.1,1.7,5.44,5.44,0,0,1-3-.39,2.39,2.39,0,0,1-.91-.62s.34.2,1,.44a5.61,5.61,0,0,0,2.84.2,9.09,9.09,0,0,0,3.88-1.73c1.34-.93,2.66-2.18,4.27-3.26a8.67,8.67,0,0,1,5.17-1.69,7.73,7.73,0,0,1,2.33.59,13.54,13.54,0,0,0,1.9.66,3.32,3.32,0,0,0,2.72-.41A3.47,3.47,0,0,0,279.24,154.29Z" style="fill:#fafafa"></path><path d="M209.18,161.89s-.18.27-.72.39a2.72,2.72,0,0,1-2.14-.58,7.56,7.56,0,0,1-1.86-2.68,4.35,4.35,0,0,0-2.54-2.55,9.1,9.1,0,0,0-3.79.2,5.83,5.83,0,0,1-3.27-.15,2.85,2.85,0,0,1-1.59-1.55c-.19-.51-.09-.82-.07-.81s0,.29.25.73a2.89,2.89,0,0,0,1.54,1.29,5.73,5.73,0,0,0,3.06,0,9.06,9.06,0,0,1,4-.22,3.51,3.51,0,0,1,1.81,1.17,8.23,8.23,0,0,1,1,1.66,7.93,7.93,0,0,0,1.66,2.62,2.67,2.67,0,0,0,1.88.66A5.57,5.57,0,0,0,209.18,161.89Z" style="fill:#fafafa"></path><path d="M207.67,156s-.22.12-.6,0a2.48,2.48,0,0,1-1.25-1.06,5.29,5.29,0,0,0-1.34-1.74,3.86,3.86,0,0,0-2.62-.18,7,7,0,0,1-2.92,0,6.08,6.08,0,0,1-2.19-1,3.76,3.76,0,0,1-1.46-1.61c.08-.06.56.63,1.67,1.31a6.57,6.57,0,0,0,4.83.78,4.13,4.13,0,0,1,2.94.29,5.1,5.1,0,0,1,1.41,2,2.57,2.57,0,0,0,1,1.06C207.45,156,207.67,156,207.67,156Z" style="fill:#fafafa"></path><path d="M254.66,161.17s-.63-.13-1.76-.39-2.77-.65-4.81-1c-1-.18-2.14-.37-3.34-.52a18.62,18.62,0,0,0-3.84-.15,11.69,11.69,0,0,0-4,1.31c-1.32.66-2.65,1.46-4.09,2.17a11.67,11.67,0,0,1-4.51,1.3,14.57,14.57,0,0,1-4.34-.48,57.19,57.19,0,0,0-7.06-1.71,10,10,0,0,0-4.79.45,16.84,16.84,0,0,0-1.58.82s.1-.12.34-.32a6.5,6.5,0,0,1,1.16-.69,9.84,9.84,0,0,1,4.9-.63,51.1,51.1,0,0,1,7.14,1.62,14.84,14.84,0,0,0,4.2.44,11.47,11.47,0,0,0,4.31-1.27c1.41-.69,2.74-1.49,4.09-2.16a12.3,12.3,0,0,1,4.17-1.33,18.61,18.61,0,0,1,3.94.2c1.22.17,2.34.38,3.36.59,2,.43,3.67.87,4.79,1.19.56.17,1,.3,1.28.41S254.67,161.15,254.66,161.17Z" style="fill:#fafafa"></path><path d="M255.69,166.19s-.6-.24-1.66-.69-2.62-1.07-4.58-1.67a19.79,19.79,0,0,0-3.26-.74,8.73,8.73,0,0,0-3.72.49c-2.55.87-5,2.74-8,3.92a12.22,12.22,0,0,1-4.61.8,25.4,25.4,0,0,1-4.3-.46,51.52,51.52,0,0,0-7.14-1.11,12.7,12.7,0,0,0-4.77.61c-1.08.39-1.61.76-1.64.72s.12-.12.37-.29a7.71,7.71,0,0,1,1.19-.62,11.89,11.89,0,0,1,4.86-.78,46.72,46.72,0,0,1,7.21,1c2.66.45,5.74.81,8.64-.35s5.34-3,8-3.89a8.94,8.94,0,0,1,3.92-.45,18.36,18.36,0,0,1,3.32.8,39.8,39.8,0,0,1,4.55,1.85c.52.25.92.46,1.18.61A2,2,0,0,1,255.69,166.19Z" style="fill:#fafafa"></path><path d="M242.33,164.4s-.25.08-.72.12a9.42,9.42,0,0,1-2-.05,12.92,12.92,0,0,1-2.9-.69,15.15,15.15,0,0,1-3.24-1.67,15.48,15.48,0,0,1-2.71-2.46,12.52,12.52,0,0,1-1.65-2.48,9.29,9.29,0,0,1-.75-1.86c-.12-.45-.18-.71-.14-.72s.38,1,1.21,2.41a14.82,14.82,0,0,0,1.69,2.34,17.07,17.07,0,0,0,2.65,2.34,16.26,16.26,0,0,0,3.11,1.66,14.84,14.84,0,0,0,2.79.77C241.29,164.38,242.33,164.3,242.33,164.4Z" style="fill:#263238"></path><g style="opacity:0.30000000000000004"><path d="M228.25,155.67c.68,3.72,2.1,7.43,4.81,10.07s6.9,4,10.42,2.59a2.48,2.48,0,0,0,1.68-1.56,2.06,2.06,0,0,0-1.36-2.14,8.25,8.25,0,0,0-2.72-.37,15.44,15.44,0,0,1-12.61-8.17"></path></g><path d="M257.57,170.51a3.64,3.64,0,0,1-.43-1c-.25-.63-.59-1.55-1-2.69-.8-2.29-1.83-5.46-2.87-9s-1.87-6.78-2.43-9.13c-.28-1.18-.49-2.13-.62-2.8a4.36,4.36,0,0,1-.15-1,3.81,3.81,0,0,1,.35,1c.22.76.48,1.67.78,2.75.64,2.33,1.54,5.54,2.57,9.08s2,6.72,2.72,9c.32,1.07.6,2,.83,2.74A4.88,4.88,0,0,1,257.57,170.51Z" style="fill:#263238"></path><path d="M212.43,199.14s8.64-9.26,16.2-11.08,34.64-11.39,34.64-11.39l-1.71-5.39h0a7.25,7.25,0,0,0,4.55-2.28l1.75-1.74c2.38-2.6,5.25-4,9.41-2.59l2.62.78,2.73,8A13.36,13.36,0,0,1,271.79,191Z" style="fill:#ffbe9d"></path><path d="M274.5,177.82A32.81,32.81,0,0,0,269,176.5a31.73,31.73,0,0,0-5.62.16,12.9,12.9,0,0,1,11.09,1.16Z" style="fill:#eb996e"></path><path d="M213.73,72.56C213,60,229.36,51.18,240.53,54.33c10.49,3,15,8.18,16.69,15.2s1.64,14.62-1.11,21.31c-1.36,3.29-3.8,6.64-7.34,7" style="fill:#263238"></path><path d="M247.22,64.85a3.55,3.55,0,0,1,3.18,3.61h0l-2,48.15c-.07,5.69-8.38,8.9-14.46,8.77h0c-6.15-.13-6.36-3.14-6.45-8.55-.14-9-.14-12.43-.14-12.38S219.56,103.16,218,93c-.8-5-.55-13.31-.12-20.06.38-6.08,4.41-13.55,10.47-12.9Z" style="fill:#ffbe9d"></path><path d="M220.46,79.53a1.31,1.31,0,0,0,1.25,1.31,1.24,1.24,0,0,0,1.34-1.17,1.3,1.3,0,0,0-1.25-1.32A1.25,1.25,0,0,0,220.46,79.53Z" style="fill:#263238"></path><path d="M219.62,77.26c.16.17,1.15-.55,2.54-.55s2.43.7,2.58.53-.09-.38-.54-.71a3.55,3.55,0,0,0-2.06-.63,3.36,3.36,0,0,0-2,.65C219.69,76.88,219.54,77.19,219.62,77.26Z" style="fill:#263238"></path><path d="M234.13,79.53a1.31,1.31,0,0,0,1.26,1.31,1.25,1.25,0,0,0,1.34-1.17,1.31,1.31,0,0,0-1.25-1.32A1.26,1.26,0,0,0,234.13,79.53Z" style="fill:#263238"></path><path d="M233.37,77.53c.16.17,1.15-.56,2.54-.56s2.43.7,2.58.53-.09-.38-.54-.71a3.62,3.62,0,0,0-2.06-.63,3.36,3.36,0,0,0-2,.65C233.44,77.14,233.29,77.45,233.37,77.53Z" style="fill:#263238"></path><path d="M228.29,87.9a9.12,9.12,0,0,0-2.27-.41c-.36,0-.69-.11-.75-.35a1.77,1.77,0,0,1,.23-1.06l1.06-2.72c1.47-3.87,2.53-7.06,2.37-7.12A48.85,48.85,0,0,0,226,83.15c-.35,1-.69,1.87-1,2.74a2,2,0,0,0-.18,1.4.86.86,0,0,0,.58.52,3,3,0,0,0,.61.09A9.28,9.28,0,0,0,228.29,87.9Z" style="fill:#263238"></path><path d="M227.33,104.45a25.78,25.78,0,0,0,13.57-3.62s-3.29,7-13.44,6Z" style="fill:#eb996e"></path><path d="M228.88,91.27a2.53,2.53,0,0,1,2.26-.94,2.3,2.3,0,0,1,1.59.86,1.44,1.44,0,0,1,.11,1.66,1.68,1.68,0,0,1-1.83.47,5.3,5.3,0,0,1-1.79-1.07,1.73,1.73,0,0,1-.4-.41.49.49,0,0,1,0-.52" style="fill:#eb996e"></path><path d="M232.41,88.87c-.23,0-.23,1.5-1.53,2.58s-2.92.91-2.93,1.12.36.3,1,.32a3.81,3.81,0,0,0,2.45-.86,3.28,3.28,0,0,0,1.18-2.16C232.68,89.23,232.51,88.86,232.41,88.87Z" style="fill:#263238"></path><path d="M232.74,75.08c.14.38,1.53.2,3.17.39s3,.65,3.19.31c.1-.16-.13-.52-.67-.89a5.55,5.55,0,0,0-4.84-.54C233,74.6,232.68,74.9,232.74,75.08Z" style="fill:#263238"></path><path d="M220.13,73.22c.25.31,1.21,0,2.37,0s2.14.21,2.37-.12c.1-.16-.06-.48-.49-.78a3.29,3.29,0,0,0-1.92-.52,3.19,3.19,0,0,0-1.89.64C220.16,72.73,220,73.06,220.13,73.22Z" style="fill:#263238"></path><path d="M233.35,56.69a20.57,20.57,0,0,0-9.74,3,14.09,14.09,0,0,0-7,8.26,2.9,2.9,0,0,0,.08,2.28,2.23,2.23,0,0,0,2.78.6,6.51,6.51,0,0,0,2.26-2.08,4.34,4.34,0,0,0,8.42-.1,3.79,3.79,0,0,0,3.9,3.49,5,5,0,0,0,4.32-3.41,12.58,12.58,0,0,0,1.78,5,4.33,4.33,0,0,0,4.59,1.87,8.9,8.9,0,0,0,.07,4.53c.53,1.44,3,32.46,4.46,32s1.06-32,1.39-33.46a33.9,33.9,0,0,0,1.08-8.49,12.45,12.45,0,0,0-10-12.61,33,33,0,0,0-8.82-.81" style="fill:#263238"></path><path d="M198.07,96.83s-.11-.18-.4-.46a2.83,2.83,0,0,0-1.53-.78,3.35,3.35,0,0,0-2.59.57,3.48,3.48,0,0,0-1.16,3.22,4.22,4.22,0,0,0,.76,1.92,4.58,4.58,0,0,0,1.76,1.38,6.12,6.12,0,0,0,4.89,0,10.71,10.71,0,0,0,4.31-3.54,18.44,18.44,0,0,0,2.77-5.41c1.32-4,1.68-8.06,2.23-11.7a35.3,35.3,0,0,1,2.56-9.45,15.51,15.51,0,0,1,3.86-5.36A11.78,11.78,0,0,1,217,66.13a2.68,2.68,0,0,1,.55-.29s-.73.46-1.88,1.49A15.83,15.83,0,0,0,212,72.69a35.65,35.65,0,0,0-2.42,9.37c-.53,3.63-.87,7.71-2.22,11.79a18.75,18.75,0,0,1-2.85,5.56,11.35,11.35,0,0,1-4.53,3.68,6.58,6.58,0,0,1-5.26,0,5,5,0,0,1-1.9-1.54,4.55,4.55,0,0,1-.81-2.11,3.77,3.77,0,0,1,1.36-3.49,3.52,3.52,0,0,1,2.8-.54,2.94,2.94,0,0,1,1.57.9A1.46,1.46,0,0,1,198.07,96.83Z" style="fill:#263238"></path><path d="M251.83,113.45c0-.06.59-.32,1.57-1a13.39,13.39,0,0,0,3.43-3.64,17.59,17.59,0,0,0,2.57-6.94,27.62,27.62,0,0,0-.39-9.12c-.62-3.2-1.54-6.19-2.33-8.92s-1.47-5.22-1.87-7.34a32.38,32.38,0,0,1-.58-5.08c0-.6,0-1.07,0-1.39a1.44,1.44,0,0,1,.05-.48c.05,0,0,.67.13,1.86a37.14,37.14,0,0,0,.73,5c.45,2.09,1.14,4.55,2,7.27a89.77,89.77,0,0,1,2.38,9,26.91,26.91,0,0,1,.35,9.28,17.49,17.49,0,0,1-2.73,7.08,12.64,12.64,0,0,1-3.63,3.6,7.83,7.83,0,0,1-1.23.66A2.65,2.65,0,0,1,251.83,113.45Z" style="fill:#263238"></path><path d="M253.64,106.94a1.19,1.19,0,0,1-.36.18,5.29,5.29,0,0,1-1.1.27,6.88,6.88,0,0,1-4.08-.85,8.75,8.75,0,0,1-3.91-4.74,17,17,0,0,1-.79-7.52c.24-2.68.73-5.17.95-7.46s.35-4.36.39-6.1,0-3.15,0-4.13a8.81,8.81,0,0,1,0-1.51,7.94,7.94,0,0,1,.19,1.5c.08,1,.16,2.39.17,4.15a61.39,61.39,0,0,1-.28,6.14c-.2,2.31-.67,4.82-.91,7.46a16.89,16.89,0,0,0,.72,7.3,8.52,8.52,0,0,0,3.65,4.59,7,7,0,0,0,3.87,1C253.12,107.11,253.62,106.89,253.64,106.94Z" style="fill:#263238"></path><path d="M188.23,116.08a2.81,2.81,0,0,1,.16-1,4.58,4.58,0,0,1,1.66-2.2,7.53,7.53,0,0,1,4.14-1.44c1.72-.16,3.67.09,5.78,0a14.59,14.59,0,0,0,6.49-2.2,19.25,19.25,0,0,0,5.62-5.55,23.46,23.46,0,0,0,3.33-8.09,40,40,0,0,0,.79-9.44c0-3.26-.45-6.42-.64-9.52a28,28,0,0,1,.56-8.92,13.6,13.6,0,0,1,10.45-10.06,13,13,0,0,1,5.81.17,13.49,13.49,0,0,1,4,1.77,12.58,12.58,0,0,1,2.14,1.75c.23.23.37.42.48.54s.16.19.15.2a17.59,17.59,0,0,0-2.88-2.32,13.62,13.62,0,0,0-4-1.66,12.93,12.93,0,0,0-5.67-.09,13.3,13.3,0,0,0-6.07,3.12,13.12,13.12,0,0,0-4,6.71,28.08,28.08,0,0,0-.52,8.76c.21,3.07.61,6.25.67,9.54a41.12,41.12,0,0,1-.82,9.56,23.74,23.74,0,0,1-3.43,8.25,19.53,19.53,0,0,1-5.79,5.65,14.85,14.85,0,0,1-6.69,2.2c-2.18.12-4.11-.16-5.79,0a7.47,7.47,0,0,0-4,1.31,4.5,4.5,0,0,0-1.68,2.08C188.27,115.74,188.27,116.08,188.23,116.08Z" style="fill:#455a64"></path><path d="M238.36,54.56c0-.05.49.17,1,.78a5.09,5.09,0,0,1,1.21,2.89,5.15,5.15,0,0,1-.7,3.06c-.43.69-.84,1-.88,1s.24-.44.55-1.13a5.48,5.48,0,0,0-.47-5.54C238.67,54.94,238.31,54.62,238.36,54.56Z" style="fill:#455a64"></path><path d="M258.33,80.49a7.17,7.17,0,0,1-.27-1.22c-.15-.8-.36-1.94-.67-3.35s-.68-3.09-1.18-4.92c-.25-.92-.53-1.88-.88-2.85a9.9,9.9,0,0,0-1.44-2.77,10.92,10.92,0,0,0-4.71-3.71,8.67,8.67,0,0,0-4.86-.47,8.16,8.16,0,0,0-3.1,1.24,11.82,11.82,0,0,1-1,.73s.06-.1.2-.26a4.8,4.8,0,0,1,.7-.63,7.74,7.74,0,0,1,3.14-1.44,8.84,8.84,0,0,1,5.11.38,11.2,11.2,0,0,1,4.95,3.85,10.07,10.07,0,0,1,1.5,2.91c.35,1,.62,2,.87,2.89.47,1.86.82,3.55,1.07,5s.43,2.58.51,3.39A4.74,4.74,0,0,1,258.33,80.49Z" style="fill:#455a64"></path><path d="M239.4,62.63a12.78,12.78,0,0,1-3.2-.78,21.19,21.19,0,0,0-3.42-.83,8.35,8.35,0,0,0-4.17.46,8.25,8.25,0,0,0-3.42,2.41,8.37,8.37,0,0,0-1.63,3,13.8,13.8,0,0,0-.43,3.2,2.15,2.15,0,0,1-.16-.88,7.86,7.86,0,0,1,.23-2.42,8.25,8.25,0,0,1,1.62-3.25,8.51,8.51,0,0,1,3.61-2.6,8.66,8.66,0,0,1,4.42-.45,19.32,19.32,0,0,1,3.47,1C238.22,62.22,239.42,62.56,239.4,62.63Z" style="fill:#455a64"></path></g><g id="freepik--Plants--inject-8"><path d="M440.72,401.7c.89-3.06,2.78-6,5.72-7.29s6.58-.57,9.7.57,6.19,2.65,9.5,2.85,7.06-1.36,8.05-4.53c.93-3-.87-6.16-3.11-8.33a19.66,19.66,0,0,0-32.19,7.73" style="fill:#263238"></path><path d="M414.46,415c-4.86-4.62-4.62-12.66-2.19-18.92s7.72-11.05,13.63-14.22a43.19,43.19,0,0,1,37.63-1.21,17.86,17.86,0,0,0-14.44,8.47c-2.66,4.43-3.26,9.8-5.46,14.48A22.77,22.77,0,0,1,414.46,415" style="fill:#455a64"></path><path d="M412.13,387.26c-5.39-6.35-6.11-16.55-5.31-24.84s2.71-16.64,1.4-24.87c-.77-4.87-2.66-9.52-3.3-14.42s.27-10.42,4.06-13.58c4.36-3.63,11.22-2.77,15.75.63s7.16,8.77,9.08,14.1C438,336,439.57,349,436.11,361s-11.59,22.67-23.52,26.28" style="fill:#455a64"></path><path d="M409.54,439.41a3.41,3.41,0,0,1,0-.73c0-.48,0-1.19,0-2.1.06-1.83.23-4.47.64-7.7a99.79,99.79,0,0,1,2.06-11.28,52,52,0,0,1,5.14-13.06,54.15,54.15,0,0,1,8.42-11.24,52.82,52.82,0,0,1,8.82-7.33c1.34-.93,2.65-1.63,3.77-2.29s2.15-1.09,3-1.48l1.94-.81a3.88,3.88,0,0,1,.69-.25,3.44,3.44,0,0,1-.64.34l-1.9.9c-.8.42-1.79.94-2.92,1.56s-2.38,1.39-3.71,2.34a54.51,54.51,0,0,0-8.68,7.35,55.29,55.29,0,0,0-8.3,11.16c-5,8.66-6.31,17.75-7.3,24.13-.45,3.23-.68,5.85-.8,7.67-.06.86-.1,1.56-.13,2.09A3.25,3.25,0,0,1,409.54,439.41Z" style="fill:#263238"></path><path d="M363.1,362.19c-10,6-9.93,11.48-8.26,16.65s7.77,8.75,12.84,6.82c2.87-1.1,4.94-3.59,6.72-6.09s3.43-5.18,5.92-7,6.08-2.48,8.58-.7" style="fill:#263238"></path><path d="M355.65,368.78c2.6-3.6,9-4.64,13.1-2.84s7,5.36,9.7,8.91,5.26,7.31,8.95,9.78,8.84,3.37,12.52.88a10.71,10.71,0,0,0,4.25-7.37,24.46,24.46,0,0,0-.58-8.68c-.88-4.18-2.32-8.54-5.66-11.2-3.72-2.95-8.89-3.09-13.65-2.94-5.46.18-11,.59-16.11,2.48s-10.35,6-12.52,11" style="fill:#455a64"></path><path d="M401.26,431.43a5.36,5.36,0,0,1-.07-.86l-.09-2.47c-.06-2.2-.16-5.29-.27-9.09s-.29-8.41-.56-13.48-.67-10.64-1.44-16.43a52.62,52.62,0,0,0-1.64-8.34,43.31,43.31,0,0,0-3.05-7.3,39.43,39.43,0,0,0-8.05-10.66,30.69,30.69,0,0,0-7.44-5.09,23,23,0,0,0-2.26-1,4.19,4.19,0,0,1-.79-.35,6.84,6.84,0,0,1,.82.25,17.58,17.58,0,0,1,2.32.9,29.48,29.48,0,0,1,7.6,5,39.1,39.1,0,0,1,8.22,10.7,42.59,42.59,0,0,1,3.11,7.37,51.77,51.77,0,0,1,1.68,8.43c.77,5.82,1.14,11.4,1.4,16.48s.37,9.64.45,13.49.1,6.95.1,9.09v2.48A5.25,5.25,0,0,1,401.26,431.43Z" style="fill:#263238"></path><path d="M404.85,435.93a27.39,27.39,0,0,1-1.11-4.27,45,45,0,0,1-.47-12,79.58,79.58,0,0,1,3.79-17.44c2.05-6.41,4.82-13.27,7.19-20.63a95.11,95.11,0,0,0,2.86-10.91,98.36,98.36,0,0,0,1.41-10.41,152.69,152.69,0,0,0,.33-17.81c-.17-5.07-.43-9.17-.6-12-.08-1.38-.14-2.48-.18-3.26,0-.35,0-.63,0-.85a.81.81,0,0,1,0-.29,2.81,2.81,0,0,1,0,.28c0,.22.05.5.09.85.07.78.16,1.87.28,3.26.23,2.83.55,6.93.77,12a147.16,147.16,0,0,1-.22,17.86,97,97,0,0,1-1.39,10.47,93.48,93.48,0,0,1-2.86,11c-2.38,7.39-5.17,14.23-7.23,20.62a81.06,81.06,0,0,0-3.88,17.33,46.61,46.61,0,0,0,.3,11.95c.24,1.4.46,2.48.66,3.2.08.34.14.61.2.83A1.17,1.17,0,0,1,404.85,435.93Z" style="fill:#263238"></path><polygon points="429.54 440.43 382.77 440.43 381.7 431.43 429.54 431.43 429.54 440.43" style="fill:#263238"></polygon><polygon points="387.79 439.41 393.64 466.42 419.05 466.42 424.52 439.41 387.79 439.41" style="fill:#263238"></polygon><path d="M429.54,440.43c0,.15-10.28.24-23,.2s-23-.18-23-.33,10.28-.23,23-.19S429.54,440.29,429.54,440.43Z" style="fill:#455a64"></path><path d="M421.51,453.76a20.57,20.57,0,0,0-4.12-2.33,14.49,14.49,0,0,0-5-1,17.66,17.66,0,0,0-6.15,1.13c-2.13.72-4.12,1.56-6.07,2a14.28,14.28,0,0,1-5.25.15,10.64,10.64,0,0,1-3.37-1.08,6.9,6.9,0,0,1-.81-.52c-.17-.13-.26-.21-.25-.22a12.63,12.63,0,0,0,4.49,1.46,15,15,0,0,0,5.09-.25c1.86-.47,3.85-1.32,6-2.05A17.54,17.54,0,0,1,412.4,450a14.12,14.12,0,0,1,5.12,1.14,13.06,13.06,0,0,1,3.05,1.79,6.88,6.88,0,0,1,.72.63C421.45,453.66,421.53,453.75,421.51,453.76Z" style="fill:#455a64"></path><path d="M421.16,455.57a22,22,0,0,0-4-2.31,13.46,13.46,0,0,0-4.82-1,17.34,17.34,0,0,0-5.94,1.07c-2.06.69-4,1.49-5.85,2a14.74,14.74,0,0,1-5,.56,8.37,8.37,0,0,1-3.31-.9,5.38,5.38,0,0,1-.78-.5c-.17-.13-.25-.21-.24-.22s.39.22,1.11.54a9.08,9.08,0,0,0,3.24.71,15.29,15.29,0,0,0,4.9-.65c1.8-.51,3.72-1.32,5.8-2a17.2,17.2,0,0,1,6.12-1.06,13.13,13.13,0,0,1,7.88,2.9c.31.26.54.47.69.62S421.17,455.55,421.16,455.57Z" style="fill:#fff"></path><path d="M422,452a24.9,24.9,0,0,0-4.24-2.46,15.58,15.58,0,0,0-5.13-1.23,16.58,16.58,0,0,0-6.34,1.12,55.74,55.74,0,0,1-6.28,2.05,15.83,15.83,0,0,1-5.42,0,12.36,12.36,0,0,1-3.48-1.11,6.76,6.76,0,0,1-.84-.53c-.18-.14-.27-.22-.26-.23s.42.23,1.19.58a13.7,13.7,0,0,0,3.45.93,16.28,16.28,0,0,0,5.27-.11c1.93-.42,4-1.33,6.2-2.07a16.57,16.57,0,0,1,6.54-1.11,15.42,15.42,0,0,1,5.25,1.37,14.54,14.54,0,0,1,3.11,1.89,9.22,9.22,0,0,1,.75.65C421.91,451.87,422,452,422,452Z" style="fill:#fff"></path><path d="M95,423.24c-2,2.88-5.93,1.92-7.75.16s-2.58-4.3-3.28-6.73c-1.6-5.55-3.21-11.37-2-17A9.34,9.34,0,0,1,84.15,395a4.93,4.93,0,0,1,4.68-1.56c2,.52,3.21,2.45,4.1,4.29a40.74,40.74,0,0,1,4,17.42c0,2.81-.32,5.75-1.91,8.07" style="fill:#2563EB"></path><g style="opacity:0.2"><path d="M95,423.24c-2,2.88-5.93,1.92-7.75.16s-2.58-4.3-3.28-6.73c-1.6-5.55-3.21-11.37-2-17A9.34,9.34,0,0,1,84.15,395a4.93,4.93,0,0,1,4.68-1.56c2,.52,3.21,2.45,4.1,4.29a40.74,40.74,0,0,1,4,17.42c0,2.81-.32,5.75-1.91,8.07"></path></g><path d="M87.48,437.82a17.52,17.52,0,0,0-10.84-1.32,9,9,0,0,0-5.36,2.39c-1.33,1.48-1.59,4.08,0,5.35a5.11,5.11,0,0,0,3.37.85c2.87,0,6.05-.53,8.34,1.19,1.3,1,2.17,2.62,3.74,3.1a3.69,3.69,0,0,0,4.06-1.8,6.31,6.31,0,0,0,.46-4.66A7.11,7.11,0,0,0,87.48,437.82Z" style="fill:#2563EB"></path><path d="M100.57,427.37a10.46,10.46,0,0,1-1.63-9.64,18.51,18.51,0,0,1,5.71-8.29,30.68,30.68,0,0,1,10.23-6,10.87,10.87,0,0,1,4.6-.78,4.8,4.8,0,0,1,3.86,2.33c1.07,2.05,0,4.54-1.08,6.57a77,77,0,0,1-6.71,10.23c-2,2.6-4.32,5.16-7.39,6.33s-6.26,1-7.88-1.09" style="fill:#2563EB"></path><path d="M95.17,466.67a5.73,5.73,0,0,1-.18-1.3c-.1-1-.21-2.15-.35-3.58s-.39-3.29-.8-5.23a40.52,40.52,0,0,0-1.91-6.19,22.69,22.69,0,0,0-3.15-5.59,11.89,11.89,0,0,0-4-3.32,11.07,11.07,0,0,0-3.36-1,7.37,7.37,0,0,1-1.3-.19,5.47,5.47,0,0,1,1.33,0,10,10,0,0,1,3.5.91,11.7,11.7,0,0,1,4.21,3.35,22,22,0,0,1,3.27,5.7,37,37,0,0,1,1.89,6.29,43.66,43.66,0,0,1,.7,5.3c.11,1.52.16,2.74.18,3.59A5.65,5.65,0,0,1,95.17,466.67Z" style="fill:#263238"></path><path d="M94.92,463.93a2.4,2.4,0,0,1,0-.61v-1.74c0-1.5,0-3.68-.07-6.38-.14-5.38-.6-12.82-1.5-21s-2.1-15.52-3.19-20.8c-.25-1.32-.51-2.51-.76-3.55s-.43-1.95-.62-2.67-.3-1.25-.41-1.69a2.71,2.71,0,0,1-.1-.6,2.28,2.28,0,0,1,.21.57l.5,1.66c.23.72.46,1.62.72,2.66s.56,2.22.84,3.54a195.72,195.72,0,0,1,3.35,20.82c.9,8.19,1.3,15.65,1.34,21.05,0,2.7,0,4.88-.1,6.39,0,.7-.08,1.28-.1,1.73A2.3,2.3,0,0,1,94.92,463.93Z" style="fill:#263238"></path><path d="M94.89,449.55a11.54,11.54,0,0,1,0-1.82c.07-1.16.23-2.85.56-4.91a67,67,0,0,1,4.59-15.63,44.94,44.94,0,0,1,8.79-13.69,21.91,21.91,0,0,1,2.07-1.92c.31-.27.59-.54.88-.75l.8-.55a10.93,10.93,0,0,1,1.53-1,56,56,0,0,0-5,4.46,48,48,0,0,0-8.57,13.64,68.21,68.21,0,0,0-3,8.4c-.78,2.63-1.3,5.05-1.7,7.09s-.59,3.71-.72,4.86A13.77,13.77,0,0,1,94.89,449.55Z" style="fill:#263238"></path></g></svg>